<svg width="40" height="13" viewBox="0 0 40 13" fill="none" xmlns="http://www.w3.org/2000/svg">
<path d="M39.1996 6.50015L39.1996 6.50341C39.1982 6.58927 39.1896 6.68686 39.1533 6.78867C39.1166 6.89125 39.0555 6.98807 38.962 7.08045L33.8368 12.5261L33.8365 12.5264C33.5281 12.855 32.9811 12.888 32.6443 12.5569C32.3306 12.2488 32.3054 11.6973 32.614 11.3708L39.1996 6.50015ZM39.1996 6.50015C39.1996 6.39032 39.1677 6.2766 39.1276 6.18197C39.0875 6.08734 39.0308 5.99194 38.9644 5.92198C38.9643 5.9218 38.9641 5.92162 38.9639 5.92145L33.8366 0.473291L33.8346 0.471308M39.1996 6.50015L33.8346 0.471308M33.8346 0.471308C33.5221 0.148278 33.0117 0.111902 32.6507 0.436662L32.6507 0.436715M33.8346 0.471308L32.6507 0.436715M32.6507 0.436715C32.4781 0.592139 32.3969 0.813714 32.392 1.02676M32.6507 0.436715L32.392 1.02676M32.392 1.02676C32.387 1.23956 32.4574 1.46349 32.614 1.62911L32.392 1.02676ZM36.4126 7.34091L32.6142 11.3705L32.6142 1.62936L36.4126 5.65897L1.49988 5.65897C1.03524 5.65897 0.658911 6.03563 0.658911 6.49994C0.658911 6.96459 1.03557 7.34091 1.49988 7.34091L36.4126 7.34091Z" fill="#524EB7" stroke="#524EB7" stroke-width="0.4"/>
</svg>
