<svg width="70" height="66" viewBox="0 0 70 66" fill="none" xmlns="http://www.w3.org/2000/svg">
<path d="M29.6726 36.7127C30.7384 36.6059 31.5906 35.9668 32.1234 35.0078C32.5495 34.2619 32.6562 33.303 32.4432 32.4507C32.3364 32.0246 32.1234 31.7048 31.9103 31.385C33.0823 30.8521 33.8283 29.6802 33.8283 28.2951C33.8283 26.9101 32.9761 25.738 31.9103 25.2052C32.6562 24.1395 32.7625 22.7545 32.1234 21.5824C31.4842 20.4104 30.2054 19.7712 28.9266 19.8776C28.9266 19.4515 28.9266 19.1316 28.8198 18.7055C28.6068 17.8533 27.9677 17.1074 27.2217 16.6809C26.0497 16.0417 24.5579 16.148 23.5989 16.7876C23.066 15.6156 21.8941 14.7629 20.509 14.7629C19.124 14.7629 17.9519 15.6151 17.4191 16.6809C16.3534 15.935 14.862 15.8287 13.7963 16.4678C12.6243 17.107 11.9851 18.4925 12.0915 19.6646C10.8127 19.5578 9.53436 20.1975 8.89471 21.3694C8.25556 22.5415 8.36184 23.9265 9.10776 24.9923C7.93575 25.5251 7.18981 26.6971 7.18981 28.0821C7.18981 29.4672 8.04201 30.6392 9.10776 31.172C8.36185 32.2378 8.25557 33.6228 8.89471 34.7949C9.42758 35.647 10.2797 36.2866 11.3455 36.4997L7.08398 48.8595L11.559 47.9006L14.436 51.0973L18.0588 40.6554C18.6979 41.2946 19.5505 41.7212 20.5095 41.7212C21.4685 41.7212 22.3207 41.2951 22.8535 40.7622L26.4763 51.0977L29.3533 47.901L33.8283 48.8599L29.6726 36.7127ZM13.7965 48.0072L12.1979 46.1956L9.53402 46.7285L12.4109 38.4176C12.7308 39.0568 13.1569 39.5897 13.796 40.0158C14.6482 40.5486 15.6072 40.5486 16.566 40.3356L13.7965 48.0072ZM20.5092 40.2287C19.5502 40.2287 18.698 39.3765 18.698 38.4174V38.2044V38.0976V37.9909L18.1651 37.8841L17.2061 37.671C17.2061 37.7778 17.2061 37.7778 17.0994 37.8841C17.0994 37.9909 16.9926 37.9909 16.9926 38.0971C16.5665 38.9493 15.3945 39.2692 14.5419 38.7363C13.6897 38.2034 13.3698 37.1382 13.9027 36.2856C13.9027 36.1788 14.0095 36.1788 14.0095 36.0725C14.0095 36.0725 14.1162 35.9657 14.1162 35.8594L12.9442 34.7937C12.9442 34.7937 12.8375 34.9005 12.7312 34.9005C12.7312 34.9005 12.6244 35.0072 12.5181 35.0072C11.6659 35.5401 10.4934 35.2203 10.0674 34.3681C9.5345 33.5159 9.85431 32.3434 10.7065 31.9173C10.8133 31.9173 10.8133 31.8106 10.9196 31.8106C11.0263 31.8106 11.1326 31.7038 11.1326 31.7038L10.7065 30.212H10.4935H10.2804C9.32146 30.212 8.4692 29.3599 8.4692 28.4008C8.4692 27.4418 9.3214 26.5896 10.2804 26.5896H10.4935H10.6002H10.707L11.0268 24.9915C11.0268 24.9915 10.9201 24.9915 10.9201 24.8847C11.0259 24.8852 10.9196 24.8852 10.9196 24.7789C10.0674 24.2461 9.74755 23.1808 10.2804 22.3282C10.8133 21.476 11.8785 21.1562 12.7312 21.689C12.8379 21.689 12.8379 21.7958 12.9442 21.7958C13.051 21.7958 13.051 21.9026 13.1573 21.9026L14.3293 20.7305C14.2225 20.6238 14.2225 20.6238 14.2225 20.5175C14.2225 20.4107 14.1158 20.4107 14.1158 20.3044C13.5829 19.4522 13.9027 18.3865 14.7549 17.8537C15.6071 17.3208 16.7796 17.6406 17.2056 18.4928C17.2056 18.5996 17.3124 18.5996 17.3124 18.7059C17.3124 18.8127 17.4192 18.9189 17.4192 18.9189L18.9109 18.4928V18.2798V18.0667C18.9109 17.1078 19.7631 16.2555 20.7222 16.2555C21.6811 16.2555 22.5334 17.1077 22.5334 18.0667V18.2798L22.4266 18.9189L23.8117 19.345L24.1315 18.7059C24.1315 18.5991 24.2382 18.5991 24.2382 18.4928C24.6643 17.6406 25.8364 17.3208 26.689 17.8537C27.1151 18.0667 27.4349 18.4928 27.5412 18.9194C27.6479 19.3455 27.6479 19.8784 27.3281 20.3045C27.3281 20.4112 27.2213 20.4112 27.2213 20.5175C27.2213 20.6243 27.1146 20.6243 27.0083 20.7306L28.1803 21.7963L28.2871 21.6895C28.3938 21.6895 28.3938 21.5828 28.5001 21.5828C29.3523 21.0499 30.5248 21.3697 30.9509 22.2219C31.4837 23.0741 31.1639 24.2466 30.3117 24.6727C30.205 24.6727 30.205 24.7794 30.0987 24.7794C29.9919 24.7794 29.8856 24.8862 29.8856 24.8862L30.3117 26.378H30.5248H30.7378C31.6968 26.378 32.549 27.2301 32.549 28.1892C32.549 29.1482 31.6968 30.0004 30.7378 30.0004H30.5248L29.5658 29.8936V30.6395L29.3527 31.2787L29.9919 31.5985C30.0987 31.5985 30.205 31.7053 30.205 31.7053C30.631 31.9183 30.9509 32.3444 31.0571 32.771C31.1639 33.1971 31.1639 33.73 30.8441 34.156C30.418 35.0082 29.246 35.328 28.3933 34.7952C28.2866 34.7952 28.2866 34.6884 28.1803 34.6884C28.1803 34.6884 28.0735 34.5816 27.9672 34.5816L26.9015 35.7537L27.0083 35.8604C27.0083 35.9672 27.115 35.9672 27.115 36.0735C27.3281 36.4996 27.4349 37.0324 27.3281 37.4585C27.2213 37.8846 26.902 38.3107 26.4759 38.5243C25.6237 39.0571 24.4512 38.7373 24.0252 37.8851C24.0252 37.7783 23.9184 37.7783 23.9184 37.672C23.9184 37.5653 23.8116 37.459 23.8116 37.459L22.3199 37.8851V38.0981V38.3112C22.3203 39.3764 21.4681 40.2287 20.5091 40.2287H20.5092ZM28.82 46.1955L27.1151 48.1134L24.4513 40.3354C25.4103 40.6552 26.476 40.5484 27.3282 40.1223C27.9674 39.8025 28.394 39.2701 28.7133 38.6306L31.4833 46.8352L28.82 46.1955Z" fill="#524EB7"/>
<path d="M27.6479 28.2942C27.6479 24.352 24.4511 21.1553 20.509 21.1553C16.5669 21.1553 13.3701 24.352 13.3701 28.2942C13.3701 32.2363 16.5669 35.4331 20.509 35.4331C24.4511 35.4331 27.6479 32.2368 27.6479 28.2942ZM20.509 33.8349C17.5253 33.8349 14.9682 31.3842 14.9682 28.2942C14.9682 25.3105 17.419 22.7534 20.509 22.7534C23.4927 22.7534 26.0498 25.2041 26.0498 28.2942C26.0493 31.2778 23.599 33.8349 20.509 33.8349Z" fill="#524EB7"/>
<path d="M65.9007 0.0584733H4.1016C1.86383 0.0584733 0.0527344 1.86969 0.0527344 4.10734V61.8573C0.0527344 64.0951 1.86395 65.9062 4.1016 65.9062H65.9007C68.1385 65.9062 69.9496 64.095 69.9496 61.8573V4.00098C69.9496 1.76321 68.138 0.0583496 65.9007 0.0583496V0.0584733ZM4.10037 1.6571H65.8995C67.1783 1.6571 68.3502 2.72283 68.3502 4.10784V7.83688H1.75623V4.00098C1.75623 2.72218 2.82196 1.65697 4.10024 1.65697L4.10037 1.6571ZM65.9007 64.0956H4.1016C2.82281 64.0956 1.65086 63.0299 1.65086 61.6449V9.4355H68.2449V61.6449C68.3511 63.0304 67.1791 64.0956 65.9008 64.0956H65.9007Z" fill="#524EB7"/>
<path d="M4.4209 4.10742H6.01903V5.70555H4.4209V4.10742Z" fill="#524EB7"/>
<path d="M8.14941 4.10742H9.74754V5.70555H8.14941V4.10742Z" fill="#524EB7"/>
<path d="M11.8789 4.10742H13.477V5.70555H11.8789V4.10742Z" fill="#524EB7"/>
<path d="M42.6719 20.3035H64.728V21.9016H42.6719V20.3035Z" fill="#524EB7"/>
<path d="M38.4102 27.4419H64.7282V29.04H38.4102V27.4419Z" fill="#524EB7"/>
<path d="M46.4004 34.6868H64.7265V36.2849H46.4004V34.6868Z" fill="#524EB7"/>
<path d="M43.5244 41.8267H64.6221V43.4248H43.5244V41.8267Z" fill="#524EB7"/>
<path d="M38.4102 48.9651H64.7282V50.5632H38.4102V48.9651Z" fill="#524EB7"/>
<path d="M30.2051 56.2112H64.6213V57.8093H30.2051V56.2112Z" fill="#524EB7"/>
</svg>
