<svg width="70" height="70" viewBox="0 0 70 70" fill="none" xmlns="http://www.w3.org/2000/svg">
<path d="M46.3476 35.9208L35.3729 26.3312C35.0531 26.1181 34.627 26.1181 34.3072 26.3312L23.3325 35.9208C23.1195 36.0276 23.0127 36.2406 23.0127 36.56V50.7319C23.0127 51.158 23.3325 51.5841 23.8649 51.5841H45.8147C46.2408 51.5841 46.6669 51.2642 46.6669 50.7319L46.6679 36.4536C46.6679 36.2405 46.5611 36.0275 46.3481 35.9212L46.3476 35.9208ZM37.0778 42.3137H32.6027L26.2098 37.3058H43.5775L37.0778 42.3137ZM24.6113 38.158L31.0042 43.1658L24.6113 48.9195V38.158ZM32.6028 43.9117H37.0779L43.7906 49.8785H25.8899L32.6028 43.9117ZM38.5697 43.1658L44.9625 38.1579V48.9196L38.5697 43.1658ZM34.8401 28.0354L43.6839 35.7071L25.9959 35.7066L34.8401 28.0354Z" fill="#524EB7"/>
<path d="M29.2998 8.64331H41.3402V10.2414H29.2998V8.64331Z" fill="#524EB7"/>
<path d="M31.0049 13.1189H39.7419V14.717H31.0049V13.1189Z" fill="#524EB7"/>
<path d="M11.0803 54.9928C11.2933 55.2059 11.5064 55.5257 11.5064 55.845H13.1045C13.1045 55.0991 12.7847 54.3532 12.1455 53.8203C11.7194 53.5005 11.2934 53.2875 10.7605 53.1812V51.7961H9.16238V53.1812C8.62952 53.2879 8.20342 53.501 7.77735 53.8203C7.13819 54.3532 6.81838 55.0991 6.81838 55.845C6.81838 56.5909 7.13819 57.3368 7.77735 57.8697C8.31021 58.4026 9.16238 58.6156 9.90826 58.6156C10.3344 58.6156 10.7605 58.7224 10.974 59.0417C11.1871 59.2548 11.4001 59.5746 11.4001 59.8939C11.4001 60.2137 11.2933 60.4268 10.974 60.7461C10.4411 61.279 9.37587 61.279 8.73622 60.7461C8.52317 60.533 8.31013 60.2132 8.31013 59.8939H6.81836C6.81836 60.6398 7.13817 61.3857 7.77732 61.9186C8.20342 62.2384 8.62952 62.4515 9.16236 62.5577V63.9428H10.7605V62.5577C11.2934 62.451 11.7194 62.2379 12.1455 61.9186C12.7847 61.3857 13.1045 60.6398 13.1045 59.8939C13.1045 59.148 12.7847 58.4021 12.1455 57.8692C11.6127 57.3364 10.7605 57.1233 10.0146 57.1233C9.5885 57.1233 9.16241 57.0165 8.94887 56.6972C8.73581 56.4842 8.52277 56.1643 8.52277 55.845C8.52277 55.5252 8.62954 55.3121 8.94887 54.9928C9.48222 54.46 10.4411 54.46 11.0803 54.9928Z" fill="#524EB7"/>
<path d="M65.8474 56.1652C65.6344 55.4193 65.4213 54.8864 65.3146 54.5671C64.8885 53.9279 64.3556 53.395 63.7164 52.8622C63.0773 52.4361 62.4376 52.1163 61.5855 52.01C60.8396 51.9032 60.0938 51.9032 59.2415 52.01C58.4956 52.1168 57.6434 52.4361 57.0037 52.8622C56.2578 53.2883 55.7249 53.8212 55.1925 54.4603C54.7664 55.0995 54.3403 55.7391 54.2336 56.485C54.0205 57.2309 54.0205 57.9768 54.0205 58.7228C54.1273 59.4687 54.3403 60.2145 54.7664 60.8537C55.1925 61.4929 55.7254 62.0257 56.3645 62.5586C57.0037 62.9847 57.6433 63.3045 58.4955 63.4108C58.9216 63.5175 59.2414 63.5175 59.6675 63.5175C60.0936 63.5175 60.4134 63.5175 60.8395 63.4108L60.5197 61.8126C59.9868 61.9194 59.3477 61.9194 58.8148 61.8126C58.282 61.7059 57.7491 61.4928 57.3231 61.1735C56.897 60.8537 56.4709 60.4276 56.151 60.0015C55.8312 59.5754 55.7249 59.0425 55.6182 58.5097C55.5114 57.9769 55.6182 57.444 55.7249 56.9116C55.8317 56.3787 56.151 55.8458 56.4708 55.4198C56.7907 54.8869 57.323 54.5676 57.8559 54.2478C58.3888 53.928 58.9216 53.7149 59.5607 53.6086C60.0936 53.5019 60.7328 53.5019 61.2656 53.6086C61.7985 53.7154 62.3313 53.9284 62.7574 54.2478C63.1835 54.5676 63.6096 54.9937 63.9294 55.4198C63.9294 55.5266 64.1424 55.7396 64.3555 56.5918C64.4622 57.231 64.3555 57.8706 64.0357 58.2967C63.8226 58.5097 63.6096 58.7228 63.3965 58.8295C63.0767 58.8291 62.8637 58.8291 62.8637 58.8291C62.6506 58.7223 62.5438 58.1899 62.5438 57.7633C62.5438 57.6566 62.5438 57.5503 62.6506 57.4435C62.8637 56.3778 62.8637 55.5256 62.8637 55.5256L62.9704 54.7797L62.2245 54.6729C62.2245 54.6729 61.7984 54.5661 61.1588 54.5661C59.5607 54.5661 58.2819 55.2053 57.536 56.3773C57.0031 57.2295 56.7901 58.1886 57.0031 59.0412C57.2162 59.6803 57.536 60.2132 58.1751 60.5329C58.4949 60.6397 58.8143 60.746 59.1341 60.746C59.9863 60.746 60.8389 60.3199 61.4781 59.6803C61.5849 59.8933 61.7979 60.1064 62.011 60.2131C62.4371 60.4262 63.0767 60.6392 64.0356 60.2131C64.5685 60.0001 64.9946 59.574 65.3144 59.1474C65.8473 58.2962 66.0604 57.2304 65.8473 56.1652L65.8474 56.1652ZM60.7329 58.0831C60.413 58.616 59.6671 59.1489 59.1347 59.1489H58.9217C58.7086 59.0421 58.6019 58.8291 58.6019 58.7228C58.4951 58.2967 58.6019 57.8706 58.9217 57.3377C59.4545 56.4855 60.5198 56.272 61.1594 56.272C61.1594 56.5918 61.0527 56.9112 61.0527 57.3377C60.9459 57.7638 60.9459 57.7638 60.9459 57.8706C60.8396 57.8701 60.7329 57.8701 60.7329 58.0832L60.7329 58.0831Z" fill="#524EB7"/>
<path d="M63.2898 48.4936C64.2487 45.51 64.7815 42.4201 64.7815 39.2238C64.7815 26.9704 57.1099 15.8888 45.7096 11.5207V11.3076C45.7096 5.55387 41.0216 0.865723 35.2678 0.865723C29.514 0.865723 24.8259 5.55374 24.8259 11.3076V11.4144C13.1052 15.6763 5.3273 26.7575 5.3273 39.3303C5.3273 42.527 5.86016 45.5102 6.81906 48.4938C2.87693 49.7726 0 53.5017 0 57.8704C0 63.3044 4.47505 67.7798 9.90945 67.7798C13.2124 67.7798 16.1961 66.075 18.0073 63.6241C23.0152 67.1402 28.8752 69.0581 35.0559 69.0581C41.1295 69.0581 46.9895 67.2469 51.9969 63.7305C53.8081 66.1812 56.6849 67.7793 59.9884 67.7793C65.4224 67.7793 69.8978 63.3043 69.8978 57.8699C69.8964 53.5012 67.1258 49.8784 63.2899 48.4933L63.2898 48.4936ZM27.596 15.4625C26.85 14.1837 26.5302 12.6925 26.5302 11.3068C26.5302 6.4057 30.4724 2.46307 35.374 2.46307C40.2751 2.46307 44.2177 6.40521 44.2177 11.3068C44.2177 16.2079 40.2756 20.1506 35.374 20.1506C33.9889 20.1506 32.497 19.8308 31.4318 19.2984L31.2188 19.1916L26.3177 20.2573L27.8094 15.8886L27.596 15.4625ZM9.90797 66.074C5.32618 66.074 1.59714 62.345 1.59714 57.7632C1.59714 53.1814 5.32618 49.4524 9.90797 49.4524C14.4898 49.4524 18.2188 53.1814 18.2188 57.7632C18.2188 62.345 14.4898 66.074 9.90797 66.074ZM35.0535 67.246C29.1935 67.246 23.546 65.4348 18.8583 62.0251C19.4975 60.7463 19.8173 59.255 19.8173 57.6564C19.8173 52.2224 15.3422 47.747 9.90783 47.747C9.37496 47.747 8.8421 47.747 8.41606 47.8537C7.4571 44.9768 7.03103 42.1 7.03103 39.01C7.03103 27.2893 14.2766 16.9538 25.1445 12.7983C25.3575 13.8641 25.5706 14.823 26.1034 15.782L23.7594 22.388L30.8983 20.7898C32.1771 21.429 33.7752 21.7488 35.3733 21.7488C40.4879 21.7488 44.7499 18.0197 45.6021 13.2249C56.1507 17.4868 63.1825 27.8222 63.1825 39.2226C63.1825 42.3125 62.6497 45.1894 61.6907 48.0663C61.1579 47.9595 60.5187 47.8533 59.9859 47.8533C54.5519 47.8533 50.0764 52.3283 50.0764 57.7627C50.0764 59.3608 50.5025 60.8526 51.1422 62.1314C46.4546 65.5406 40.9139 67.2451 35.0533 67.2451L35.0535 67.246ZM59.9864 66.074C55.4046 66.074 51.6756 62.345 51.6756 57.7632C51.6756 53.1814 55.4046 49.4524 59.9864 49.4524C64.5682 49.4524 68.2972 53.1814 68.2972 57.7632C68.2972 62.345 64.5682 66.074 59.9864 66.074Z" fill="#524EB7"/>
</svg>
