<svg width="70" height="52" viewBox="0 0 70 52" fill="none" xmlns="http://www.w3.org/2000/svg">
<path d="M69.9487 33.9464V27.2337L65.58 26.3815C65.1539 24.6767 64.5143 23.0785 63.6621 21.5866L66.2192 17.9638L61.5312 13.169L57.9083 15.6197C56.4166 14.6607 54.8184 14.0216 53.1135 13.595L52.3676 9.22632H45.6549L44.8027 13.595C43.0978 14.0211 41.4997 14.6607 40.0078 15.513L36.385 12.9559L31.5901 17.6439L34.0408 21.2667C33.1886 22.7585 32.4427 24.3566 32.0162 26.0616L27.6475 26.8075V33.5202L32.0162 34.3724C32.4423 36.0772 33.0819 37.6754 33.9341 39.1672L31.2708 43.0031L36.0656 47.798L39.6885 45.3473C41.1802 46.3062 42.7783 46.9454 44.4833 47.372L45.2292 51.7407H51.9419L52.7941 47.372C54.499 46.9459 56.0971 46.3062 57.589 45.454L61.2118 48.0111L66.0067 43.2162L63.556 39.5934C64.5149 38.1017 65.1541 36.5035 65.5806 34.7986L69.9487 33.9464ZM64.195 33.8396C63.7689 35.6509 63.023 37.4625 61.9572 39.0606L61.6374 39.4867L63.9814 42.8964L61.105 45.8801L57.6953 43.536L57.2692 43.8559C55.671 44.9216 53.8594 45.5607 52.0482 45.9868L51.5154 45.9863L50.7695 50.0352H46.7206L45.9747 45.9863L45.4418 45.8795C43.6306 45.4534 41.819 44.7075 40.2209 43.6417L39.7948 43.3219L36.2787 45.6664L33.4018 42.79L35.7458 39.3803L35.426 38.9542C34.3602 37.3561 33.6148 35.5445 33.2951 33.7333L33.1883 33.2004L29.1399 32.3477V28.2988L33.1888 27.5529L33.2955 27.0201C33.7216 25.1021 34.4676 23.3973 35.5333 21.7991L35.8531 21.373L33.5081 17.9633L36.3851 15.0864L39.7948 17.4304L40.2209 17.1106C41.819 16.0449 43.6306 15.2994 45.4418 14.9797L45.9747 14.8729L46.7206 10.824H50.7695L51.5154 14.8729L52.0482 14.9797C53.9662 15.4058 55.671 16.1517 57.2692 17.2175L57.6953 17.5373L61.105 15.1933L63.9819 18.0702L61.6379 21.4799L61.9577 21.906C63.0234 23.5041 63.6626 25.209 64.0886 27.1269L64.1954 27.6598L68.2443 28.4057V32.4546L64.3011 33.3068L64.195 33.8396Z" fill="#524EB7"/>
<path d="M48.7446 18.0703C41.9255 18.0703 36.3848 23.6111 36.3848 30.4301C36.3848 33.7331 37.6636 36.823 40.0076 39.1672C42.3516 41.5112 45.4416 42.79 48.7446 42.79H48.8513C55.6704 42.79 61.2112 37.2492 61.2112 30.4301C61.2112 27.1271 59.9324 24.0373 57.5884 21.6931C55.2443 19.3491 52.1543 18.0703 48.7446 18.0703H48.7446ZM48.7446 41.2989V42.1511V41.2989C45.7609 41.2989 43.0976 40.1269 41.0729 38.1022C39.0482 36.0775 37.983 33.3073 37.983 30.4305C37.983 24.4637 42.8841 19.6688 48.8509 19.6688C51.7279 19.6688 54.3917 20.8408 56.4159 22.8656C58.4406 24.8902 59.5058 27.6604 59.5058 30.5372C59.5063 36.3973 54.7114 41.2989 48.7446 41.2989Z" fill="#524EB7"/>
<path d="M30.2048 19.9872L27.6477 18.0693C27.8608 16.8973 27.9675 15.7253 27.8608 14.6596L30.6309 13.0614L28.926 8.16033L25.7293 8.58643C25.0901 7.62746 24.3442 6.77521 23.4915 6.02932L24.3437 2.93943L19.7619 0.701658L17.8439 3.25876C16.6719 3.0457 15.6062 2.93895 14.4342 3.04571L12.8361 0.275635L7.93548 1.87376L8.36157 5.07051C7.40261 5.70966 6.55035 6.45554 5.80447 7.30828L2.71458 6.45609L0.476804 11.0379L3.03391 12.9558C2.82085 14.1278 2.7141 15.1936 2.82085 16.3655L0.0507812 17.9627L1.75564 22.8638L4.95239 22.4377C5.59154 23.3967 6.33742 24.2489 7.19016 24.9948L6.33797 28.0847L11.026 30.3225L12.9439 27.7654C14.116 27.9784 15.288 28.0852 16.3537 27.9784L17.9518 30.7485L22.8529 29.0436L22.4268 25.8469C23.3858 25.2077 24.238 24.4618 24.9839 23.6091L28.0738 24.4613L30.2048 19.9872ZM24.238 21.9052L23.9182 22.3313C23.066 23.397 22.107 24.2492 20.9346 24.8884L20.5085 25.2082L20.9346 28.0851L18.5905 28.9373L17.2055 26.3802L16.6726 26.487C15.3938 26.5937 14.0088 26.5937 12.7305 26.2739L12.1976 26.1672L10.4928 28.5112L8.255 27.4454L8.89464 24.4623L8.46854 24.1425C7.40281 23.2903 6.55059 22.3312 5.91144 21.1588L5.69838 20.7332L2.71473 21.1593L1.86253 18.8153L4.41963 17.4302L4.31287 16.8974C4.2061 15.5123 4.2061 14.2335 4.52592 12.9552L4.63269 12.4224L2.50177 10.6108L3.5675 8.37351L6.33757 9.11942L6.76367 8.69283C7.61586 7.6271 8.57489 6.77489 9.74733 6.13573L10.1734 5.81592L9.74733 2.939L12.0913 2.0868L13.4764 4.64391L14.0092 4.53714C15.288 4.43037 16.6731 4.43037 17.9514 4.75019L18.4842 4.85696L20.1891 2.51295L22.4269 3.57868L21.681 6.56184L22.1071 6.88165C23.1728 7.73385 24.025 8.69287 24.6642 9.86531L24.984 10.2914L27.8609 9.86531L28.7131 12.2093L26.156 13.7007L26.2628 14.2336C26.3695 15.5124 26.3695 16.8974 26.0497 18.1757L25.9429 18.7086L28.2869 20.4134L27.2212 22.6512L24.238 21.9052Z" fill="#524EB7"/>
<path d="M15.288 8.2666C14.542 8.2666 13.6898 8.37337 12.9439 8.6927C11.1327 9.33185 9.64096 10.6107 8.78822 12.3155C7.93602 14.0204 7.82925 16.0446 8.46841 17.8563C9.42737 20.8399 12.1975 22.7574 15.3942 22.7574C16.1401 22.7574 16.9923 22.6506 17.7382 22.3313C19.5494 21.6921 21.0412 20.4133 21.8939 18.7085C22.7461 17.0036 22.8529 14.9794 22.2137 13.1677C21.148 10.2913 18.4842 8.2666 15.288 8.2666ZM20.4022 18.0693C19.763 19.4544 18.5909 20.4133 17.0992 20.9462C16.5663 21.053 15.9272 21.1593 15.288 21.1593C12.8372 21.1593 10.7062 19.6675 9.96028 17.3234C9.42742 15.9384 9.53419 14.3397 10.2801 12.9547C10.9192 11.5697 12.0913 10.6107 13.5831 10.0778C14.2222 9.86473 14.7551 9.75797 15.3943 9.75797C17.845 9.75797 19.9761 11.2497 20.722 13.5939C21.1481 15.0861 21.0413 16.6843 20.4022 18.0694V18.0693Z" fill="#524EB7"/>
<path d="M52.0479 28.5122L54.4981 30.4302L52.0479 32.4549L53.1131 33.6269L56.949 30.4301L53.1131 27.2339L52.0479 28.5122Z" fill="#524EB7"/>
<path d="M44.3769 27.2334L40.541 30.4296L44.3769 33.6264L45.4422 32.4544L43.0982 30.4297L45.4422 28.5117L44.3769 27.2334Z" fill="#524EB7"/>
<path d="M46.9222 35.8944L45.4893 35.1857L50.5435 24.9661L51.9764 25.6748L46.9222 35.8944Z" fill="#524EB7"/>
</svg>
