<svg width="120" height="98" viewBox="0 0 120 98" fill="none" xmlns="http://www.w3.org/2000/svg">
<path d="M68.7997 27.7429C67.3414 31.2076 64.0594 42.3295 70.0762 65.8508C70.2589 66.58 71.1699 68.221 73.1757 68.221C75.1813 68.221 76.0931 66.7626 76.2751 65.8508C82.6565 41.9651 79.3746 31.0254 77.7335 27.5609C79.3745 26.1025 80.1036 24.4614 80.1036 24.4614C83.0211 19.1738 79.0099 14.6153 77.7335 13.1568C76.0924 11.3331 77.0043 8.41652 77.0043 8.41652L77.5516 6.59277H75.7278C75.3632 6.59277 67.7054 6.77548 65.3344 15.8918C63.6942 22.2724 66.429 26.1018 68.8 27.7428L68.7997 27.7429ZM67.8879 16.6201C69.1643 11.8798 72.0817 10.2387 73.9048 9.69144C73.7221 11.1498 73.9048 13.338 75.5458 14.9791C78.2807 18.0785 79.0106 20.6313 77.5515 23.1844C77.5515 23.1844 76.8223 24.8254 75.1813 25.9192L73.9049 26.6483L74.634 27.9248C74.634 28.1075 80.8336 37.5883 73.3576 65.1206C73.3576 65.4851 72.993 65.4851 72.993 65.4851C72.8103 65.4851 72.6284 65.3024 72.6284 65.1206C65.5169 37.5883 71.5346 28.1068 71.5346 27.9248L72.4465 26.6483L70.9874 26.1019C70.8055 25.9192 66.0642 23.7317 67.8879 16.6202L67.8879 16.6201Z" fill="#524EB7"/>
<path d="M71.7163 46.3418H74.4511V49.0766H71.7163V46.3418Z" fill="#524EB7"/>
<path d="M71.7158 39.9609H74.4507V42.6958H71.7158V39.9609Z" fill="#524EB7"/>
<path d="M114.383 0.939453H4.98177C2.24695 0.939453 0.0585938 3.31046 0.0585938 6.04527V78.7966C0.0585938 81.5314 2.24695 83.9024 5.16441 83.9024H44.7305L37.8019 94.2959H30.5085V97.0307H89.4038V94.2959H82.1104L75.1817 83.9024H114.748C117.483 83.9024 119.854 81.7141 119.854 78.7966L119.853 6.04527C119.488 3.31046 117.117 0.939453 114.382 0.939453H114.383ZM4.98177 3.67511H114.383C115.659 3.67511 116.753 4.76887 116.753 6.04527V70.7754L2.7932 70.7746V6.04656C2.7932 4.77012 3.70507 3.6764 4.98156 3.6764L4.98177 3.67511ZM78.4632 94.1132H40.9013L47.83 83.7198L71.5337 83.7206L78.4632 94.1132ZM114.383 80.985H4.98177C3.70532 80.985 2.79341 79.8912 2.79341 78.6148V73.5098H116.753V78.7974C116.753 80.0739 115.659 80.985 114.383 80.985H114.383Z" fill="#524EB7"/>
<path d="M86.6685 58.1937C86.6685 62.0231 89.0386 65.6697 92.5034 67.3107L94.509 68.2226V62.023L96.6974 60.1993L98.8857 62.023L98.8849 68.04L100.891 67.1281C104.355 65.4871 106.543 62.0223 106.543 58.1937C106.543 54.9116 104.902 51.8123 101.984 49.9884V25.0085C104.719 23.1848 106.543 20.0853 106.543 16.8032C106.543 12.9738 104.354 9.50987 100.891 7.86881L98.8849 6.95776V12.9747L96.6965 14.7984L94.5082 12.9747L94.509 6.95776L92.5034 7.86881C88.8568 9.50985 86.6685 12.9746 86.6685 16.9859C86.6685 20.268 88.3095 23.3672 91.227 25.1911V49.807C88.3095 51.6299 86.6685 54.7302 86.6685 58.1941V58.1937ZM93.2327 23.1863C90.8625 21.9098 89.4033 19.5397 89.4033 16.9867C89.4033 14.9811 90.3151 12.9755 91.7734 11.6991V14.4339L96.6966 18.6278L101.62 14.4339V11.8811C102.896 13.1575 103.808 14.9806 103.808 16.9869C103.808 19.5397 102.35 22.0927 99.9787 23.1865L99.2496 23.5511V51.4495L99.9787 51.8141C102.349 53.0905 103.808 55.4607 103.808 58.0137C103.808 60.0193 103.079 61.8431 101.62 63.1195V60.5667L96.6966 56.3728L91.7734 60.5667V63.3015C90.3151 62.0251 89.4033 60.0194 89.4033 58.0139C89.4033 55.4611 90.8616 52.9081 93.2327 51.8143L93.9619 51.4497V23.5513L93.2327 23.1863Z" fill="#524EB7"/>
<path d="M53.1174 8.78003H7.71631V35.9483H52.9353L52.9362 8.78003H53.1174ZM27.5914 22.2729L10.452 32.1191L10.4511 12.6092L27.5914 22.2729ZM14.2803 11.5148H46.5533L30.5076 20.8139L14.2803 11.5148ZM30.5081 23.914L46.5538 33.213H14.2808L30.5081 23.914ZM33.2437 22.273L50.3832 12.4268V32.1193L33.2437 22.273Z" fill="#524EB7"/>
<path d="M28.6857 39.4127H7.7168V65.4868H28.503V39.4127H28.6857ZM25.9509 62.7524H10.4516V42.1488H25.9509V62.7524Z" fill="#524EB7"/>
<path d="M32.332 65.4868H53.1183V39.4127H32.332V65.4868ZM35.0668 42.1492H50.3835V62.7535L35.0668 62.7527V42.1492Z" fill="#524EB7"/>
</svg>
